<svg xmlns="http://www.w3.org/2000/svg" xmlns:xlink="http://www.w3.org/1999/xlink" width="1000" zoomAndPan="magnify" viewBox="0 0 750 499.49999" height="666" preserveAspectRatio="xMidYMid meet" version="1.0"><defs><filter x="0%" y="0%" width="100%" height="100%" id="aff6f5a9cc"><feColorMatrix values="0 0 0 0 1 0 0 0 0 1 0 0 0 0 1 0 0 0 1 0" color-interpolation-filters="sRGB"/></filter><mask id="7d5ecc7635"><g filter="url(#aff6f5a9cc)"><rect x="-75" width="900" fill="#000000" y="-49.949999" height="599.399988" fill-opacity="0.0784"/></g></mask><clipPath id="e3f09e9126"><path d="M 0.4375 0.136719 L 118.820312 0.136719 L 118.820312 35.289062 L 0.4375 35.289062 Z M 0.4375 0.136719 " clip-rule="nonzero"/></clipPath><clipPath id="b72737d802"><path d="M 59.988281 35.707031 C 27.101562 35.707031 0.4375 27.769531 0.4375 17.984375 C 0.4375 8.199219 27.101562 0.269531 59.988281 0.269531 C 92.875 0.269531 119.539062 8.199219 119.539062 17.984375 C 119.539062 27.769531 92.875 35.699219 59.988281 35.699219 Z M 59.988281 35.707031 " clip-rule="nonzero"/></clipPath><radialGradient gradientTransform="matrix(1.555792, 0, 0, 0.444208, 59.98533, 17.986288)" gradientUnits="userSpaceOnUse" r="37.18994" cx="0" id="92fb3e2eef" cy="0" fx="0" fy="0"><stop stop-opacity="1" stop-color="rgb(13.592529%, 12.103271%, 12.402344%)" offset="0"/><stop stop-opacity="1" stop-color="rgb(13.298035%, 11.84082%, 12.133789%)" offset="0.015625"/><stop stop-opacity="1" stop-color="rgb(12.922668%, 11.508179%, 11.791992%)" offset="0.0429688"/><stop stop-opacity="1" stop-color="rgb(12.548828%, 11.174011%, 11.450195%)" offset="0.0703125"/><stop stop-opacity="1" stop-color="rgb(12.173462%, 10.839844%, 11.108398%)" offset="0.0976562"/><stop stop-opacity="1" stop-color="rgb(11.799622%, 10.507202%, 10.766602%)" offset="0.125"/><stop stop-opacity="1" stop-color="rgb(11.451721%, 10.197449%, 10.449219%)" offset="0.152344"/><stop stop-opacity="1" stop-color="rgb(11.129761%, 9.910583%, 10.15625%)" offset="0.175781"/><stop stop-opacity="1" stop-color="rgb(10.809326%, 9.625244%, 9.863281%)" offset="0.199219"/><stop stop-opacity="1" stop-color="rgb(10.487366%, 9.339905%, 9.570312%)" offset="0.222656"/><stop stop-opacity="1" stop-color="rgb(10.166931%, 9.05304%, 9.277344%)" offset="0.246094"/><stop stop-opacity="1" stop-color="rgb(9.872437%, 8.792114%, 9.008789%)" offset="0.269531"/><stop stop-opacity="1" stop-color="rgb(9.605408%, 8.554077%, 8.764648%)" offset="0.289062"/><stop stop-opacity="1" stop-color="rgb(9.336853%, 8.314514%, 8.520508%)" offset="0.308594"/><stop stop-opacity="1" stop-color="rgb(9.069824%, 8.076477%, 8.276367%)" offset="0.328125"/><stop stop-opacity="1" stop-color="rgb(8.802795%, 7.83844%, 8.032227%)" offset="0.347656"/><stop stop-opacity="1" stop-color="rgb(8.534241%, 7.600403%, 7.788086%)" offset="0.367188"/><stop stop-opacity="1" stop-color="rgb(8.294678%, 7.385254%, 7.568359%)" offset="0.386719"/><stop stop-opacity="1" stop-color="rgb(8.079529%, 7.194519%, 7.373047%)" offset="0.402344"/><stop stop-opacity="1" stop-color="rgb(7.865906%, 7.003784%, 7.177734%)" offset="0.417969"/><stop stop-opacity="1" stop-color="rgb(7.652283%, 6.813049%, 6.982422%)" offset="0.433594"/><stop stop-opacity="1" stop-color="rgb(7.437134%, 6.622314%, 6.787109%)" offset="0.449219"/><stop stop-opacity="1" stop-color="rgb(7.223511%, 6.43158%, 6.591797%)" offset="0.464844"/><stop stop-opacity="1" stop-color="rgb(7.009888%, 6.240845%, 6.396484%)" offset="0.480469"/><stop stop-opacity="1" stop-color="rgb(6.796265%, 6.051636%, 6.201172%)" offset="0.496094"/><stop stop-opacity="1" stop-color="rgb(6.50177%, 5.789185%, 5.932617%)" offset="0.511719"/><stop stop-opacity="1" stop-color="rgb(6.126404%, 5.455017%, 5.59082%)" offset="0.539062"/><stop stop-opacity="1" stop-color="rgb(5.778503%, 5.145264%, 5.273438%)" offset="0.566406"/><stop stop-opacity="1" stop-color="rgb(5.458069%, 4.859924%, 4.980469%)" offset="0.589844"/><stop stop-opacity="1" stop-color="rgb(5.136108%, 4.573059%, 4.6875%)" offset="0.613281"/><stop stop-opacity="1" stop-color="rgb(4.841614%, 4.312134%, 4.418945%)" offset="0.636719"/><stop stop-opacity="1" stop-color="rgb(4.574585%, 4.074097%, 4.174805%)" offset="0.65625"/><stop stop-opacity="1" stop-color="rgb(4.30603%, 3.83606%, 3.930664%)" offset="0.675781"/><stop stop-opacity="1" stop-color="rgb(4.066467%, 3.620911%, 3.710938%)" offset="0.695312"/><stop stop-opacity="1" stop-color="rgb(3.852844%, 3.430176%, 3.515625%)" offset="0.710938"/><stop stop-opacity="1" stop-color="rgb(3.637695%, 3.239441%, 3.320312%)" offset="0.726562"/><stop stop-opacity="1" stop-color="rgb(3.424072%, 3.048706%, 3.125%)" offset="0.742188"/><stop stop-opacity="1" stop-color="rgb(3.129578%, 2.786255%, 2.856445%)" offset="0.757812"/><stop stop-opacity="1" stop-color="rgb(2.781677%, 2.476501%, 2.539062%)" offset="0.785156"/><stop stop-opacity="1" stop-color="rgb(2.461243%, 2.191162%, 2.246094%)" offset="0.808594"/><stop stop-opacity="1" stop-color="rgb(2.166748%, 1.928711%, 1.977539%)" offset="0.832031"/><stop stop-opacity="1" stop-color="rgb(1.925659%, 1.713562%, 1.757812%)" offset="0.851562"/><stop stop-opacity="1" stop-color="rgb(1.712036%, 1.522827%, 1.5625%)" offset="0.867188"/><stop stop-opacity="1" stop-color="rgb(1.417542%, 1.261902%, 1.293945%)" offset="0.882812"/><stop stop-opacity="1" stop-color="rgb(1.095581%, 0.976562%, 1.000977%)" offset="0.910156"/><stop stop-opacity="1" stop-color="rgb(0.856018%, 0.761414%, 0.78125%)" offset="0.929688"/><stop stop-opacity="1" stop-color="rgb(0.561523%, 0.498962%, 0.512695%)" offset="0.945312"/><stop stop-opacity="1" stop-color="rgb(0.186157%, 0.166321%, 0.170898%)" offset="0.972656"/><stop stop-opacity="1" stop-color="rgb(0%, 0%, 0%)" offset="1"/></radialGradient><clipPath id="f3b99754d4"><rect x="0" width="120" y="0" height="37"/></clipPath></defs><path fill="#6067ec" d="M 356.570312 468.253906 L 186.769531 468.253906 C 174.175781 468.253906 163.976562 458.058594 163.976562 445.46875 L 163.976562 53.4375 C 163.976562 40.847656 174.175781 30.652344 186.769531 30.652344 L 356.570312 30.652344 C 369.164062 30.652344 379.363281 40.847656 379.363281 53.4375 L 379.363281 445.46875 C 379.363281 458.058594 369.164062 468.253906 356.570312 468.253906 " fill-opacity="1" fill-rule="nonzero"/><path fill="#6383fd" d="M 215.945312 98.511719 L 171.566406 36.496094 C 166.917969 40.667969 163.976562 46.703125 163.976562 53.4375 L 163.976562 135.6875 Z M 215.945312 98.511719 " fill-opacity="1" fill-rule="nonzero"/><path fill="#6383fd" d="M 163.976562 292.589844 L 163.976562 445.46875 C 163.976562 458.058594 174.175781 468.253906 186.769531 468.253906 L 255.265625 468.253906 L 356.082031 396.144531 L 242.023438 236.773438 Z M 163.976562 292.589844 " fill-opacity="1" fill-rule="nonzero"/><path fill="#6383fd" d="M 297.488281 173.289062 L 379.363281 114.726562 L 379.363281 53.4375 C 379.363281 40.847656 369.164062 30.652344 356.570312 30.652344 L 195.410156 30.652344 Z M 297.488281 173.289062 " fill-opacity="1" fill-rule="nonzero"/><path fill="#6383fd" d="M 379.363281 350.082031 L 379.363281 254.808594 L 313.753906 301.738281 L 358.851562 364.746094 Z M 379.363281 350.082031 " fill-opacity="1" fill-rule="nonzero"/><path fill="#6383fd" d="M 301.808594 285.070312 L 379.363281 229.59375 L 379.363281 134.332031 L 256.722656 222.050781 Z M 301.808594 285.070312 " fill-opacity="1" fill-rule="nonzero"/><path fill="#6383fd" d="M 278.949219 186.539062 L 223.242188 108.707031 L 163.976562 151.105469 L 163.976562 268.777344 Z M 278.949219 186.539062 " fill-opacity="1" fill-rule="nonzero"/><path fill="#ffffff" d="M 355.648438 50.238281 L 346.941406 50.238281 C 346.554688 50.238281 346.234375 49.929688 346.234375 49.542969 C 346.234375 49.15625 346.554688 48.835938 346.941406 48.835938 L 355.648438 48.835938 C 356.035156 48.835938 356.355469 49.15625 356.355469 49.542969 C 356.355469 49.929688 356.035156 50.238281 355.648438 50.238281 " fill-opacity="1" fill-rule="nonzero"/><path fill="#ffffff" d="M 355.648438 53.960938 L 346.941406 53.960938 C 346.554688 53.960938 346.234375 53.65625 346.234375 53.269531 C 346.234375 52.878906 346.554688 52.5625 346.941406 52.5625 L 355.648438 52.5625 C 356.035156 52.5625 356.355469 52.878906 356.355469 53.269531 C 356.355469 53.65625 356.035156 53.960938 355.648438 53.960938 " fill-opacity="1" fill-rule="nonzero"/><path fill="#ffffff" d="M 355.648438 57.6875 L 346.941406 57.6875 C 346.554688 57.6875 346.234375 57.378906 346.234375 56.992188 C 346.234375 56.605469 346.554688 56.285156 346.941406 56.285156 L 355.648438 56.285156 C 356.035156 56.285156 356.355469 56.59375 356.355469 56.992188 C 356.355469 57.390625 356.035156 57.6875 355.648438 57.6875 " fill-opacity="1" fill-rule="nonzero"/><path fill="#ffffff" d="M 193.792969 57.632812 C 193.539062 57.632812 193.289062 57.539062 193.085938 57.371094 L 189.609375 54.429688 C 189.359375 54.226562 189.222656 53.917969 189.222656 53.597656 C 189.222656 53.277344 189.359375 52.972656 189.609375 52.753906 L 193.085938 49.816406 C 193.550781 49.429688 194.234375 49.484375 194.636719 49.941406 C 195.035156 50.398438 194.964844 51.089844 194.507812 51.492188 L 192.011719 53.597656 L 194.496094 55.707031 C 194.964844 56.09375 195.023438 56.789062 194.625 57.253906 C 194.40625 57.515625 194.097656 57.644531 193.78125 57.644531 " fill-opacity="1" fill-rule="nonzero"/><g mask="url(#7d5ecc7635)"><g transform="matrix(1, 0, 0, 1, 484, 301)"><g clip-path="url(#f3b99754d4)"><g clip-path="url(#e3f09e9126)"><g clip-path="url(#b72737d802)"><path fill="url(#92fb3e2eef)" d="M 0.4375 0.269531 L 0.4375 35.289062 L 118.820312 35.289062 L 118.820312 0.269531 Z M 0.4375 0.269531 " fill-rule="nonzero"/></g></g></g></g></g><path fill="#ffffff" d="M 559.640625 326.152344 L 540.847656 332.191406 L 522.050781 326.152344 L 502.179688 332.191406 L 478.265625 324.042969 L 493.824219 272.113281 L 512.066406 276.667969 L 526.753906 273.304688 L 540.847656 276.667969 L 554.9375 273.304688 L 569.625 276.667969 L 587.875 272.113281 L 603.433594 324.042969 L 579.519531 332.191406 Z M 559.640625 326.152344 " fill-opacity="1" fill-rule="nonzero"/><path fill="#8ebfce" d="M 503.449219 325.0625 L 486.265625 319.40625 L 497.519531 277.3125 L 511.332031 280.855469 Z M 503.449219 325.0625 " fill-opacity="1" fill-rule="nonzero"/><path fill="#8ebfce" d="M 540.847656 325.0625 L 522.648438 319.40625 L 526.398438 277.3125 L 540.847656 280.855469 Z M 540.847656 325.0625 " fill-opacity="1" fill-rule="nonzero"/><path fill="#b7eae8" d="M 522.648438 319.40625 L 503.449219 325.0625 L 511.324219 280.855469 L 526.398438 277.3125 Z M 522.648438 319.40625 " fill-opacity="1" fill-rule="nonzero"/><path fill="#b7eae8" d="M 559.042969 319.40625 L 540.847656 325.0625 L 540.847656 280.855469 L 555.292969 277.3125 Z M 559.042969 319.40625 " fill-opacity="1" fill-rule="nonzero"/><path fill="#8ebfce" d="M 578.242188 325.0625 L 559.042969 319.40625 L 555.292969 277.3125 L 570.367188 280.855469 Z M 578.242188 325.0625 " fill-opacity="1" fill-rule="nonzero"/><path fill="#b7eae8" d="M 595.425781 319.40625 L 578.242188 325.0625 L 570.359375 280.855469 L 584.171875 277.3125 Z M 595.425781 319.40625 " fill-opacity="1" fill-rule="nonzero"/><path fill="#ffffff" d="M 525.414062 320.265625 L 522.648438 319.40625 Z M 525.414062 320.265625 " fill-opacity="1" fill-rule="nonzero"/><path fill="#ffffff" d="M 581.265625 278.0625 L 578.214844 278.851562 Z M 581.265625 278.0625 " fill-opacity="1" fill-rule="nonzero"/><path fill="#ffffff" d="M 550.222656 322.144531 L 555.105469 320.625 Z M 550.222656 322.144531 " fill-opacity="1" fill-rule="nonzero"/><path fill="#ffffff" d="M 501.652344 324.472656 L 497.832031 323.21875 Z M 501.652344 324.472656 " fill-opacity="1" fill-rule="nonzero"/><path fill="#ffffff" d="M 507.003906 305.136719 L 507.871094 300.261719 C 506.976562 299.167969 506.734375 297.765625 507.046875 295.949219 C 507.117188 295.546875 507.171875 295.160156 507.21875 294.765625 L 507.226562 294.730469 C 507.296875 294.085938 507.34375 293.460938 507.34375 292.871094 L 509.195312 292.871094 L 509.589844 290.644531 L 507.191406 290.644531 C 506.769531 287.804688 505.453125 285.542969 503.253906 283.824219 C 501.597656 282.527344 499.164062 281.679688 496.5 281.113281 L 495.640625 284.316406 C 497.421875 284.773438 498.96875 285.390625 500.035156 286.25 C 502.402344 288.171875 503.371094 291.054688 502.851562 294.910156 L 496.929688 322.914062 L 497.832031 323.210938 L 501.652344 324.460938 L 505.453125 304.152344 C 505.921875 304.5 506.429688 304.824219 507.003906 305.117188 " fill-opacity="1" fill-rule="nonzero"/><path fill="#ffffff" d="M 540.847656 309.539062 L 540.847656 305.261719 C 536.121094 304.152344 530.699219 303.972656 525.429688 303.804688 C 524.964844 303.785156 524.5 303.777344 524.046875 303.757812 L 522.648438 319.398438 L 525.414062 320.257812 L 526.34375 307.867188 C 531.496094 308.042969 536.695312 308.3125 540.847656 309.53125 " fill-opacity="1" fill-rule="nonzero"/><path fill="#ffffff" d="M 525.019531 292.871094 L 540.847656 292.871094 L 540.847656 290.644531 L 525.21875 290.644531 Z M 525.019531 292.871094 " fill-opacity="1" fill-rule="nonzero"/><path fill="#ffffff" d="M 525.21875 290.632812 L 509.589844 290.632812 L 509.195312 292.863281 L 525.019531 292.863281 Z M 525.21875 290.632812 " fill-opacity="1" fill-rule="nonzero"/><path fill="#ffffff" d="M 511.1875 302.28125 C 509.667969 301.773438 508.566406 301.121094 507.871094 300.261719 L 507.003906 305.136719 C 507.609375 305.449219 508.273438 305.734375 508.996094 305.988281 C 512.890625 307.320312 517.933594 307.597656 523.347656 307.777344 L 522.28125 319.515625 L 522.648438 319.40625 L 524.046875 303.769531 C 519.0625 303.605469 514.429688 303.375 511.179688 302.28125 " fill-opacity="1" fill-rule="nonzero"/><path fill="#ffffff" d="M 553.738281 300.867188 C 554.9375 300.867188 556.160156 300.851562 557.386719 300.816406 L 557.046875 297.058594 C 555.902344 297.101562 554.710938 297.121094 553.476562 297.128906 L 552.152344 278.082031 L 548.269531 279.039062 L 548.800781 290.632812 L 540.847656 290.632812 L 540.847656 292.863281 L 548.898438 292.863281 L 549.648438 309.414062 C 548.039062 308.027344 546.078125 306.925781 543.769531 306.113281 C 542.832031 305.78125 541.855469 305.503906 540.855469 305.269531 L 540.855469 309.546875 C 541.265625 309.671875 541.679688 309.789062 542.070312 309.933594 C 547.074219 311.738281 549.585938 314.976562 550.167969 320.632812 L 550.238281 322.152344 L 555.125 320.632812 L 555.113281 320.5625 Z M 553.738281 300.867188 " fill-opacity="1" fill-rule="nonzero"/><path fill="#ffffff" d="M 572.058594 292.441406 C 568.445312 295.886719 563.453125 296.816406 557.046875 297.058594 L 557.378906 300.816406 C 562.675781 300.644531 568.042969 299.964844 572.433594 297.335938 L 577.195312 324.757812 L 578.242188 325.070312 L 572.371094 292.128906 C 572.265625 292.234375 572.167969 292.34375 572.058594 292.449219 " fill-opacity="1" fill-rule="nonzero"/><path fill="#ffffff" d="M 576.21875 294.238281 C 579.25 290.875 580.878906 286.242188 581.246094 280.316406 C 581.292969 279.664062 581.292969 278.894531 581.265625 278.0625 L 578.214844 278.839844 L 577.257812 279.082031 C 577.246094 279.269531 577.238281 279.460938 577.222656 279.628906 C 576.746094 285.105469 575.171875 289.265625 572.382812 292.109375 L 578.25 325.050781 L 582.070312 323.800781 L 579.214844 309.367188 L 592.75 309.367188 L 592.046875 306.703125 L 578.6875 306.703125 Z M 576.21875 294.238281 " fill-opacity="1" fill-rule="nonzero"/><path fill="#fcfcfc" d="M 585.792969 231.699219 C 585.792969 271.558594 540.570312 298.007812 540.570312 298.007812 C 540.570312 298.007812 524.824219 288.40625 511.921875 272.5625 C 502.949219 261.566406 495.355469 247.5625 495.355469 231.699219 C 495.355469 206.71875 515.589844 186.472656 540.570312 186.472656 C 562.289062 186.472656 580.441406 201.789062 584.796875 222.226562 C 585.453125 225.285156 585.792969 228.445312 585.792969 231.691406 " fill-opacity="1" fill-rule="nonzero"/><path fill="#6383fd" d="M 554.75 223.933594 C 554.75 231.761719 548.398438 238.113281 540.570312 238.113281 C 532.742188 238.113281 526.390625 231.761719 526.390625 223.933594 C 526.390625 216.105469 532.742188 209.753906 540.570312 209.753906 C 548.398438 209.753906 554.75 216.105469 554.75 223.933594 " fill-opacity="1" fill-rule="nonzero"/></svg>